<svg width="529" height="128" viewBox="0 0 529 128" fill="none" xmlns="http://www.w3.org/2000/svg">
<rect x="5" y="5" width="118" height="118" rx="59" stroke="#3592FF" stroke-width="10"/>
<path d="M44.232 82.768C41.608 82.768 39.24 82.352 37.128 81.52C35.016 80.656 33.256 79.408 31.848 77.776L37.944 70.576C38.84 71.664 39.72 72.496 40.584 73.072C41.448 73.616 42.344 73.888 43.272 73.888C45.704 73.888 46.92 72.496 46.92 69.712V56.944H35.496V48.4H58.104V69.04C58.104 73.648 56.92 77.088 54.552 79.36C52.184 81.632 48.744 82.768 44.232 82.768ZM77.9865 82.768C75.1705 82.768 72.4505 82.448 69.8265 81.808C67.2025 81.168 65.0425 80.336 63.3465 79.312L66.9945 71.056C68.5945 71.984 70.3705 72.736 72.3225 73.312C74.3065 73.856 76.2265 74.128 78.0825 74.128C79.1705 74.128 80.0185 74.064 80.6265 73.936C81.2665 73.776 81.7305 73.568 82.0185 73.312C82.3065 73.024 82.4505 72.688 82.4505 72.304C82.4505 71.696 82.1145 71.216 81.4425 70.864C80.7705 70.512 79.8745 70.224 78.7545 70C77.6665 69.744 76.4665 69.488 75.1545 69.232C73.8425 68.944 72.5145 68.576 71.1705 68.128C69.8585 67.68 68.6425 67.088 67.5225 66.352C66.4345 65.616 65.5545 64.656 64.8825 63.472C64.2105 62.256 63.8745 60.752 63.8745 58.96C63.8745 56.88 64.4505 54.992 65.6025 53.296C66.7865 51.568 68.5305 50.192 70.8345 49.168C73.1705 48.144 76.0665 47.632 79.5225 47.632C81.7945 47.632 84.0345 47.872 86.2425 48.352C88.4505 48.832 90.4345 49.568 92.1945 50.56L88.7865 58.768C87.1225 57.936 85.5065 57.312 83.9385 56.896C82.4025 56.48 80.8985 56.272 79.4265 56.272C78.3385 56.272 77.4745 56.368 76.8345 56.56C76.1945 56.752 75.7305 57.008 75.4425 57.328C75.1865 57.648 75.0585 58 75.0585 58.384C75.0585 58.96 75.3945 59.424 76.0665 59.776C76.7385 60.096 77.6185 60.368 78.7065 60.592C79.8265 60.816 81.0425 61.056 82.3545 61.312C83.6985 61.568 85.0265 61.92 86.3385 62.368C87.6505 62.816 88.8505 63.408 89.9385 64.144C91.0585 64.88 91.9545 65.84 92.6265 67.024C93.2985 68.208 93.6345 69.68 93.6345 71.44C93.6345 73.488 93.0425 75.376 91.8585 77.104C90.7065 78.8 88.9785 80.176 86.6745 81.232C84.3705 82.256 81.4745 82.768 77.9865 82.768Z" fill="#3592FF"/>
<path d="M175.268 51.8H181.1V77H175.268V51.8ZM163.82 77H157.988V51.8H163.82V77ZM175.7 66.668H163.388V61.736H175.7V66.668ZM188.286 77V57.632H193.902V77H188.286ZM191.094 54.932C190.062 54.932 189.222 54.632 188.574 54.032C187.926 53.432 187.602 52.688 187.602 51.8C187.602 50.912 187.926 50.168 188.574 49.568C189.222 48.968 190.062 48.668 191.094 48.668C192.126 48.668 192.966 48.956 193.614 49.532C194.262 50.084 194.586 50.804 194.586 51.692C194.586 52.628 194.262 53.408 193.614 54.032C192.99 54.632 192.15 54.932 191.094 54.932ZM199.762 82.544L202.138 73.904L202.93 77.144C201.898 77.144 201.046 76.844 200.374 76.244C199.726 75.644 199.402 74.816 199.402 73.76C199.402 72.704 199.738 71.864 200.41 71.24C201.082 70.616 201.91 70.304 202.894 70.304C203.902 70.304 204.73 70.628 205.378 71.276C206.026 71.9 206.35 72.728 206.35 73.76C206.35 74.072 206.326 74.384 206.278 74.696C206.23 74.984 206.134 75.344 205.99 75.776C205.87 76.184 205.666 76.712 205.378 77.36L203.326 82.544H199.762ZM223.988 77V51.8H229.82V77H223.988ZM236.052 62.24L238.428 53.6L239.22 56.876C238.188 56.876 237.336 56.576 236.664 55.976C236.016 55.352 235.692 54.512 235.692 53.456C235.692 52.424 236.028 51.596 236.7 50.972C237.372 50.324 238.2 50 239.184 50C240.192 50 241.02 50.324 241.668 50.972C242.316 51.596 242.64 52.424 242.64 53.456C242.64 53.768 242.616 54.08 242.568 54.392C242.544 54.68 242.46 55.028 242.316 55.436C242.196 55.844 241.992 56.384 241.704 57.056L239.616 62.24H236.052ZM272.87 57.344C274.406 57.344 275.762 57.656 276.938 58.28C278.138 58.88 279.074 59.816 279.746 61.088C280.442 62.336 280.79 63.944 280.79 65.912V77H275.174V66.776C275.174 65.216 274.85 64.064 274.202 63.32C273.554 62.576 272.642 62.204 271.466 62.204C270.65 62.204 269.918 62.396 269.27 62.78C268.622 63.14 268.118 63.692 267.758 64.436C267.398 65.18 267.218 66.128 267.218 67.28V77H261.602V66.776C261.602 65.216 261.278 64.064 260.63 63.32C260.006 62.576 259.106 62.204 257.93 62.204C257.114 62.204 256.382 62.396 255.734 62.78C255.086 63.14 254.582 63.692 254.222 64.436C253.862 65.18 253.682 66.128 253.682 67.28V77H248.066V57.632H253.43V62.924L252.422 61.376C253.094 60.056 254.042 59.06 255.266 58.388C256.514 57.692 257.93 57.344 259.514 57.344C261.29 57.344 262.838 57.8 264.158 58.712C265.502 59.6 266.39 60.968 266.822 62.816L264.842 62.276C265.49 60.764 266.522 59.564 267.938 58.676C269.378 57.788 271.022 57.344 272.87 57.344Z" fill="white"/>
<path d="M304.299 77.432C302.595 77.432 301.023 77.12 299.583 76.496C298.167 75.848 297.003 74.936 296.091 73.76L299.331 69.872C300.027 70.784 300.759 71.48 301.527 71.96C302.295 72.416 303.123 72.644 304.011 72.644C306.387 72.644 307.575 71.252 307.575 68.468V56.48H298.719V51.8H313.371V68.144C313.371 71.264 312.603 73.592 311.067 75.128C309.531 76.664 307.275 77.432 304.299 77.432ZM329.572 77.288C327.508 77.288 325.672 76.856 324.064 75.992C322.48 75.128 321.22 73.952 320.284 72.464C319.372 70.952 318.916 69.236 318.916 67.316C318.916 65.372 319.372 63.656 320.284 62.168C321.22 60.656 322.48 59.48 324.064 58.64C325.672 57.776 327.508 57.344 329.572 57.344C331.612 57.344 333.436 57.776 335.044 58.64C336.652 59.48 337.912 60.644 338.824 62.132C339.736 63.62 340.192 65.348 340.192 67.316C340.192 69.236 339.736 70.952 338.824 72.464C337.912 73.952 336.652 75.128 335.044 75.992C333.436 76.856 331.612 77.288 329.572 77.288ZM329.572 72.68C330.508 72.68 331.348 72.464 332.092 72.032C332.836 71.6 333.424 70.988 333.856 70.196C334.288 69.38 334.504 68.42 334.504 67.316C334.504 66.188 334.288 65.228 333.856 64.436C333.424 63.644 332.836 63.032 332.092 62.6C331.348 62.168 330.508 61.952 329.572 61.952C328.636 61.952 327.796 62.168 327.052 62.6C326.308 63.032 325.708 63.644 325.252 64.436C324.82 65.228 324.604 66.188 324.604 67.316C324.604 68.42 324.82 69.38 325.252 70.196C325.708 70.988 326.308 71.6 327.052 72.032C327.796 72.464 328.636 72.68 329.572 72.68ZM357.337 57.344C358.873 57.344 360.241 57.656 361.441 58.28C362.665 58.88 363.625 59.816 364.321 61.088C365.017 62.336 365.365 63.944 365.365 65.912V77H359.749V66.776C359.749 65.216 359.401 64.064 358.705 63.32C358.033 62.576 357.073 62.204 355.825 62.204C354.937 62.204 354.133 62.396 353.413 62.78C352.717 63.14 352.165 63.704 351.757 64.472C351.373 65.24 351.181 66.224 351.181 67.424V77H345.565V50.288H351.181V62.996L349.921 61.376C350.617 60.08 351.613 59.084 352.909 58.388C354.205 57.692 355.681 57.344 357.337 57.344ZM383.848 57.344C385.384 57.344 386.752 57.656 387.952 58.28C389.176 58.88 390.136 59.816 390.832 61.088C391.528 62.336 391.876 63.944 391.876 65.912V77H386.26V66.776C386.26 65.216 385.912 64.064 385.216 63.32C384.544 62.576 383.584 62.204 382.336 62.204C381.448 62.204 380.644 62.396 379.924 62.78C379.228 63.14 378.676 63.704 378.268 64.472C377.884 65.24 377.692 66.224 377.692 67.424V77H372.076V57.632H377.44V62.996L376.432 61.376C377.128 60.08 378.124 59.084 379.42 58.388C380.716 57.692 382.192 57.344 383.848 57.344ZM419.078 77.432C417.062 77.432 415.13 77.168 413.282 76.64C411.434 76.088 409.946 75.38 408.818 74.516L410.798 70.124C411.878 70.892 413.15 71.528 414.614 72.032C416.102 72.512 417.602 72.752 419.114 72.752C420.266 72.752 421.19 72.644 421.886 72.428C422.606 72.188 423.134 71.864 423.47 71.456C423.806 71.048 423.974 70.58 423.974 70.052C423.974 69.38 423.71 68.852 423.182 68.468C422.654 68.06 421.958 67.736 421.094 67.496C420.23 67.232 419.27 66.992 418.214 66.776C417.182 66.536 416.138 66.248 415.082 65.912C414.05 65.576 413.102 65.144 412.238 64.616C411.374 64.088 410.666 63.392 410.114 62.528C409.586 61.664 409.322 60.56 409.322 59.216C409.322 57.776 409.706 56.468 410.474 55.292C411.266 54.092 412.442 53.144 414.002 52.448C415.586 51.728 417.566 51.368 419.942 51.368C421.526 51.368 423.086 51.56 424.622 51.944C426.158 52.304 427.514 52.856 428.69 53.6L426.89 58.028C425.714 57.356 424.538 56.864 423.362 56.552C422.186 56.216 421.034 56.048 419.906 56.048C418.778 56.048 417.854 56.18 417.134 56.444C416.414 56.708 415.898 57.056 415.586 57.488C415.274 57.896 415.118 58.376 415.118 58.928C415.118 59.576 415.382 60.104 415.91 60.512C416.438 60.896 417.134 61.208 417.998 61.448C418.862 61.688 419.81 61.928 420.842 62.168C421.898 62.408 422.942 62.684 423.974 62.996C425.03 63.308 425.99 63.728 426.854 64.256C427.718 64.784 428.414 65.48 428.942 66.344C429.494 67.208 429.77 68.3 429.77 69.62C429.77 71.036 429.374 72.332 428.582 73.508C427.79 74.684 426.602 75.632 425.018 76.352C423.458 77.072 421.478 77.432 419.078 77.432ZM443.151 77.288C441.543 77.288 440.103 76.976 438.831 76.352C437.583 75.728 436.611 74.78 435.915 73.508C435.219 72.212 434.871 70.568 434.871 68.576V57.632H440.487V67.748C440.487 69.356 440.823 70.544 441.495 71.312C442.191 72.056 443.163 72.428 444.411 72.428C445.275 72.428 446.043 72.248 446.715 71.888C447.387 71.504 447.915 70.928 448.299 70.16C448.683 69.368 448.875 68.384 448.875 67.208V57.632H454.491V77H449.163V71.672L450.135 73.22C449.487 74.564 448.527 75.584 447.255 76.28C446.007 76.952 444.639 77.288 443.151 77.288ZM461.314 77V57.632H466.93V77H461.314ZM464.122 54.932C463.09 54.932 462.25 54.632 461.602 54.032C460.954 53.432 460.63 52.688 460.63 51.8C460.63 50.912 460.954 50.168 461.602 49.568C462.25 48.968 463.09 48.668 464.122 48.668C465.154 48.668 465.994 48.956 466.642 49.532C467.29 50.084 467.614 50.804 467.614 51.692C467.614 52.628 467.29 53.408 466.642 54.032C466.018 54.632 465.178 54.932 464.122 54.932ZM483.122 77.288C481.034 77.288 479.174 76.868 477.542 76.028C475.91 75.164 474.626 73.976 473.69 72.464C472.778 70.952 472.322 69.236 472.322 67.316C472.322 65.372 472.778 63.656 473.69 62.168C474.626 60.656 475.91 59.48 477.542 58.64C479.174 57.776 481.034 57.344 483.122 57.344C485.162 57.344 486.938 57.776 488.45 58.64C489.962 59.48 491.078 60.692 491.798 62.276L487.442 64.616C486.938 63.704 486.302 63.032 485.534 62.6C484.79 62.168 483.974 61.952 483.086 61.952C482.126 61.952 481.262 62.168 480.494 62.6C479.726 63.032 479.114 63.644 478.658 64.436C478.226 65.228 478.01 66.188 478.01 67.316C478.01 68.444 478.226 69.404 478.658 70.196C479.114 70.988 479.726 71.6 480.494 72.032C481.262 72.464 482.126 72.68 483.086 72.68C483.974 72.68 484.79 72.476 485.534 72.068C486.302 71.636 486.938 70.952 487.442 70.016L491.798 72.392C491.078 73.952 489.962 75.164 488.45 76.028C486.938 76.868 485.162 77.288 483.122 77.288ZM505.621 77.288C503.557 77.288 501.721 76.856 500.113 75.992C498.529 75.128 497.269 73.952 496.333 72.464C495.421 70.952 494.965 69.236 494.965 67.316C494.965 65.372 495.421 63.656 496.333 62.168C497.269 60.656 498.529 59.48 500.113 58.64C501.721 57.776 503.557 57.344 505.621 57.344C507.661 57.344 509.485 57.776 511.093 58.64C512.701 59.48 513.961 60.644 514.873 62.132C515.785 63.62 516.241 65.348 516.241 67.316C516.241 69.236 515.785 70.952 514.873 72.464C513.961 73.952 512.701 75.128 511.093 75.992C509.485 76.856 507.661 77.288 505.621 77.288ZM505.621 72.68C506.557 72.68 507.397 72.464 508.141 72.032C508.885 71.6 509.473 70.988 509.905 70.196C510.337 69.38 510.553 68.42 510.553 67.316C510.553 66.188 510.337 65.228 509.905 64.436C509.473 63.644 508.885 63.032 508.141 62.6C507.397 62.168 506.557 61.952 505.621 61.952C504.685 61.952 503.845 62.168 503.101 62.6C502.357 63.032 501.757 63.644 501.301 64.436C500.869 65.228 500.653 66.188 500.653 67.316C500.653 68.42 500.869 69.38 501.301 70.196C501.757 70.988 502.357 71.6 503.101 72.032C503.845 72.464 504.685 72.68 505.621 72.68ZM523.528 77.288C522.568 77.288 521.74 76.964 521.044 76.316C520.372 75.644 520.036 74.792 520.036 73.76C520.036 72.728 520.372 71.9 521.044 71.276C521.74 70.628 522.568 70.304 523.528 70.304C524.512 70.304 525.34 70.628 526.012 71.276C526.684 71.9 527.02 72.728 527.02 73.76C527.02 74.792 526.684 75.644 526.012 76.316C525.34 76.964 524.512 77.288 523.528 77.288Z" fill="#3592FF"/>
</svg>
