<svg width="260" height="260" viewBox="0 0 260 260" fill="none" xmlns="http://www.w3.org/2000/svg">
<rect x="5" y="5" width="250" height="250" rx="125" stroke="#3592FF" stroke-width="10"/>
<path d="M77.952 178.048C70.9547 178.048 64.64 176.939 59.008 174.72C53.376 172.416 48.6827 169.088 44.928 164.736L61.184 145.536C63.5733 148.437 65.92 150.656 68.224 152.192C70.528 153.643 72.9173 154.368 75.392 154.368C81.8773 154.368 85.12 150.656 85.12 143.232V109.184H54.656V86.4H114.944V141.44C114.944 153.728 111.787 162.901 105.472 168.96C99.1573 175.019 89.984 178.048 77.952 178.048ZM167.964 178.048C160.455 178.048 153.201 177.195 146.204 175.488C139.207 173.781 133.447 171.563 128.924 168.832L138.652 146.816C142.919 149.291 147.655 151.296 152.86 152.832C158.151 154.283 163.271 155.008 168.22 155.008C171.121 155.008 173.383 154.837 175.004 154.496C176.711 154.069 177.948 153.515 178.716 152.832C179.484 152.064 179.868 151.168 179.868 150.144C179.868 148.523 178.972 147.243 177.18 146.304C175.388 145.365 172.999 144.597 170.012 144C167.111 143.317 163.911 142.635 160.412 141.952C156.913 141.184 153.372 140.203 149.788 139.008C146.289 137.813 143.047 136.235 140.06 134.272C137.159 132.309 134.812 129.749 133.02 126.592C131.228 123.349 130.332 119.339 130.332 114.56C130.332 109.013 131.868 103.979 134.94 99.456C138.097 94.848 142.748 91.1787 148.892 88.448C155.121 85.7173 162.844 84.352 172.06 84.352C178.119 84.352 184.092 84.992 189.98 86.272C195.868 87.552 201.159 89.5147 205.852 92.16L196.764 114.048C192.327 111.829 188.017 110.165 183.836 109.056C179.74 107.947 175.729 107.392 171.804 107.392C168.903 107.392 166.599 107.648 164.892 108.16C163.185 108.672 161.948 109.355 161.18 110.208C160.497 111.061 160.156 112 160.156 113.024C160.156 114.56 161.052 115.797 162.844 116.736C164.636 117.589 166.983 118.315 169.884 118.912C172.871 119.509 176.113 120.149 179.612 120.832C183.196 121.515 186.737 122.453 190.236 123.648C193.735 124.843 196.935 126.421 199.836 128.384C202.823 130.347 205.212 132.907 207.004 136.064C208.796 139.221 209.692 143.147 209.692 147.84C209.692 153.301 208.113 158.336 204.956 162.944C201.884 167.467 197.276 171.136 191.132 173.952C184.988 176.683 177.265 178.048 167.964 178.048Z" fill="#3592FF"/>
</svg>
